<svg xmlns="http://www.w3.org/2000/svg" width="27.623" height="26.605" viewBox="0 0 27.623 26.605" class="icon icon-facebook" xmlns:xlink="http://www.w3.org/1999/xlink">
  <g id="facebook2021" transform="translate(-0.958 0.001)">
    <path id="Path_11855" data-name="Path 11855" d="M28.58,13.383A13.6,13.6,0,0,0,14.769,0,13.6,13.6,0,0,0,.958,13.383,13.524,13.524,0,0,0,12.611,26.6V17.252H9.1V13.383h3.507V10.434c0-3.354,2.062-5.207,5.217-5.207a21.9,21.9,0,0,1,3.092.261V8.782H19.178a1.965,1.965,0,0,0-2.251,2.09v2.511h3.83l-.612,3.869H16.927V26.6A13.524,13.524,0,0,0,28.58,13.383Z" fill="#fff" fill-rule="evenodd"></path>
  </g>
</svg>