<svg xmlns="http://www.w3.org/2000/svg" width="27" height="27.004" viewBox="0 0 27 27.004" class="icon icon-instagram" xmlns:xlink="http://www.w3.org/1999/xlink">
  <g id="instagram2021" transform="translate(0 -0.887)">
    <g id="Group_8286" data-name="Group 8286">
      <path id="Path_11856" data-name="Path 11856" d="M13.5.887C9.834.887,9.374.9,7.934.968A9.906,9.906,0,0,0,4.657,1.6,6.617,6.617,0,0,0,2.266,3.153,6.618,6.618,0,0,0,.709,5.544,9.91,9.91,0,0,0,.081,8.822C.016,10.262,0,10.722,0,14.389s.016,4.127.081,5.567a9.909,9.909,0,0,0,.628,3.277,6.618,6.618,0,0,0,1.557,2.392,6.619,6.619,0,0,0,2.391,1.557,9.908,9.908,0,0,0,3.277.628c1.44.066,1.9.081,5.566.081s4.126-.016,5.566-.081a9.908,9.908,0,0,0,3.277-.628,6.9,6.9,0,0,0,3.948-3.949,9.912,9.912,0,0,0,.628-3.277c.066-1.44.081-1.9.081-5.567s-.015-4.127-.081-5.567a9.913,9.913,0,0,0-.628-3.277,6.619,6.619,0,0,0-1.557-2.391A6.617,6.617,0,0,0,22.343,1.6,9.907,9.907,0,0,0,19.066.968C17.626.9,17.166.887,13.5.887Zm0,2.433c3.6,0,4.032.014,5.455.079a7.468,7.468,0,0,1,2.507.465,4.182,4.182,0,0,1,1.552,1.01,4.183,4.183,0,0,1,1.01,1.552,7.47,7.47,0,0,1,.465,2.507c.065,1.424.079,1.851.079,5.456s-.014,4.032-.079,5.456a7.469,7.469,0,0,1-.465,2.507,4.471,4.471,0,0,1-2.562,2.562,7.468,7.468,0,0,1-2.507.465c-1.423.065-1.85.079-5.455.079s-4.032-.014-5.455-.079a7.467,7.467,0,0,1-2.507-.465A4.183,4.183,0,0,1,3.986,23.9a4.184,4.184,0,0,1-1.01-1.552,7.47,7.47,0,0,1-.465-2.507c-.065-1.424-.079-1.851-.079-5.456s.014-4.032.079-5.456a7.47,7.47,0,0,1,.465-2.507,4.183,4.183,0,0,1,1.01-1.552,4.182,4.182,0,0,1,1.552-1.01A7.468,7.468,0,0,1,8.045,3.4C9.468,3.333,9.9,3.32,13.5,3.32Z" fill="#fff" fill-rule="evenodd"></path>
    </g>
    <path id="Path_11857" data-name="Path 11857" d="M13.5,18.889a4.5,4.5,0,1,1,4.5-4.5A4.5,4.5,0,0,1,13.5,18.889Zm0-11.434a6.933,6.933,0,1,0,6.932,6.933A6.933,6.933,0,0,0,13.5,7.455Z" fill="#fff" fill-rule="evenodd"></path>
    <path id="Path_11858" data-name="Path 11858" d="M22.326,7.181a1.62,1.62,0,1,1-1.62-1.62A1.62,1.62,0,0,1,22.326,7.181Z" fill="#fff" fill-rule="evenodd"></path>
  </g>
</svg>