<svg xmlns="http://www.w3.org/2000/svg" width="27.326" height="26.524" viewBox="0 0 27.326 26.524" class="icon icon-pinterest" xmlns:xlink="http://www.w3.org/1999/xlink">
  <g id="pinterest2021" transform="translate(-0.157 -0.887)">
    <path id="Path_11860" data-name="Path 11860" d="M13.831.887A13.468,13.468,0,0,0,.157,14.138,13.272,13.272,0,0,0,8.845,26.484a12.368,12.368,0,0,1,.045-3.806c.248-1.036,1.6-6.587,1.6-6.587a4.7,4.7,0,0,1-.405-1.963c0-1.843,1.1-3.217,2.476-3.217a1.686,1.686,0,0,1,1.733,1.865c0,1.134-.743,2.836-1.137,4.417a1.946,1.946,0,0,0,2.026,2.4c2.431,0,4.3-2.487,4.3-6.064,0-3.174-2.352-5.388-5.717-5.388a5.832,5.832,0,0,0-6.179,5.748A5.067,5.067,0,0,0,8.6,16.908a.385.385,0,0,1,.09.382c-.1.414-.338,1.32-.383,1.505-.056.24-.2.295-.461.174-1.711-.774-2.78-3.185-2.78-5.137,0-4.177,3.129-8.016,9.037-8.016,4.738,0,8.43,3.272,8.43,7.656,0,4.57-2.971,8.245-7.09,8.245a3.668,3.668,0,0,1-3.129-1.527l-.855,3.152a14.242,14.242,0,0,1-1.7,3.479,14.137,14.137,0,0,0,4.052.589A13.468,13.468,0,0,0,27.483,14.16,13.438,13.438,0,0,0,13.831.887Z" fill="#fff"></path>
  </g>
</svg>