<svg xmlns="http://www.w3.org/2000/svg" width="22.413" height="24.838" viewBox="0 0 22.413 24.838" class="icon icon-tiktok" xmlns:xlink="http://www.w3.org/1999/xlink">
  <path id="tik-tok2021" d="M22.43,6.343a4.811,4.811,0,0,1-4.879-4.728A.74.74,0,0,0,16.8.887H12.779a.74.74,0,0,0-.751.728V17.592a2.87,2.87,0,1,1-2.868-2.78.739.739,0,0,0,.751-.728v-3.9A.74.74,0,0,0,9.16,9.46,8.274,8.274,0,0,0,.768,17.592,8.274,8.274,0,0,0,9.16,25.724a8.274,8.274,0,0,0,8.392-8.132V10.52A10.593,10.593,0,0,0,22.43,11.7a.739.739,0,0,0,.751-.728V7.07A.74.74,0,0,0,22.43,6.343Z" transform="translate(-0.768 -0.887)" fill="#fff"></path>
</svg>