<svg xmlns="http://www.w3.org/2000/svg" width="29.666" height="23.377" viewBox="0 0 29.666 23.377" class="icon icon-twitter" xmlns:xlink="http://www.w3.org/1999/xlink">
  <path id="twitter2021" d="M9.962,24.263A16.93,16.93,0,0,0,27.282,7.479c0-.253,0-.506-.012-.759a12.194,12.194,0,0,0,3.039-3.06,12.646,12.646,0,0,1-3.5.932A5.973,5.973,0,0,0,29.49,1.324a12.347,12.347,0,0,1-3.87,1.427A6.168,6.168,0,0,0,21.18.887a6,6,0,0,0-6.09,5.9,6.325,6.325,0,0,0,.154,1.346A17.474,17.474,0,0,1,2.7,1.968a5.761,5.761,0,0,0-.819,2.968A5.869,5.869,0,0,0,4.584,9.849,6.308,6.308,0,0,1,1.83,9.112v.081a5.961,5.961,0,0,0,4.879,5.787,6.311,6.311,0,0,1-2.742.1,6.066,6.066,0,0,0,5.686,4.1,12.458,12.458,0,0,1-7.562,2.531,12.088,12.088,0,0,1-1.448-.08A17.72,17.72,0,0,0,9.962,24.263Z" transform="translate(-0.643 -0.887)" fill="#fff"></path>
</svg>