<svg xmlns="http://www.w3.org/2000/svg" width="36.087" height="24.639" viewBox="0 0 36.087 24.639" class="icon icon-youtube" xmlns:xlink="http://www.w3.org/1999/xlink">
  <g id="youtube2021" transform="translate(-0.913 -0.879)">
    <path id="Path_11861" data-name="Path 11861" d="M15.266,18.4V8L24.7,13.2ZM36.246,4.726a4.465,4.465,0,0,0-3.19-3.112c-2.814-.736-14.1-.736-14.1-.736s-11.285,0-14.1.736a4.465,4.465,0,0,0-3.19,3.112C.913,7.471.913,13.2.913,13.2s0,5.727.754,8.472a4.466,4.466,0,0,0,3.19,3.112c2.814.735,14.1.735,14.1.735s11.285,0,14.1-.735a4.465,4.465,0,0,0,3.19-3.112C37,18.925,37,13.2,37,13.2S37,7.471,36.246,4.726Z" fill="#fff" fill-rule="evenodd"></path>
  </g>
</svg>